<svg xmlns="http://www.w3.org/2000/svg" viewBox="0 0 105 30" enable-background="new 0 0 105 30">
<g fill="#868780">
<path d="M9.5 8c0 1-.4 1.7-.7 2.2-.2.3-.2.3-.4.3-.3 0-.7-.2-.9-.3-.2-.2-.4-.5-.4-.9 0-.1 0-.1.1-.2.2-.4.4-.8.4-1.2 0-.2-.1-.5-.2-.7 0-.2-.3-.4-.5-.4s-1.3 1.5-1.5 2.7c0 .2-.1.4-.1.7 0 .2.1 1.3.2 1.7.2 2 .8 4.9.8 6 0 .2-.1.4-.2.5-.5.5-.9.9-1.6.9-.2 0-.5-.1-.6-.1-1.7-.7-2.9-2.1-3.7-3.5l-.2-.4c0-.4.4-1 .9-1s.7.1 1 .4c.6.8.9 1.8 1.7 2.5.3.2.4.3.5.3.2 0 .3-.1.3-.2s0-.2-.1-.8c-.4-1.7-.8-5.7-.8-6.2-.1-.8.2-2.3.8-3.3.7-1.2 1.7-1.6 2.2-1.6 1.4 0 2 .4 2.5.9.4.4.5 1.2.5 1.7zM14.2 7.4c-.2.5-.5 1.5-.5 1.6 0 .1.1.1.1.1.1 0 .4-.1.6-.1 1.1-.2 2.6-.8 3.4-1.3.1-.1.2-.1.3-.1.4 0 1.2.4 1.2.7 0 .3-.3.8-.8 1-.7.3-.7.4-1.1.6-1.2.5-3.4 1-3.9 1.2-.2.1-.4.2-.5.4-.2.4-.3.9-.4 1.3-.1.3-.2.6-.3.8-.2.9-1 3.1-1.2 4.4 0 .2-.3.9-.6 1.1-.2-.1-.4-.1-.5-.1-.3 0-.7-.1-.9-.3-.2-.2-.3-.4-.3-.6 0-.2 0-.6.1-.8.6-1.9 1.1-4.2 1.9-6.3l.1-.2c0-.1 0-.1-.1-.2-.9-.5-1.1-1.2-1.7-1.7-.1.1-.1 0-.1-.1 0-.2.1-.2.3-.3.2-.1.3-.1.5-.1.6 0 1.2.4 1.7.4.2 0 .4-.1.4-.4.1-.3.2-.7.4-1.2.6-1.6 1.3-3.7 2.2-5.6.2-.3.2-.3.3-.3.4 0 .5-.1.7-.1.2 0 .7.1 1 .2.1.1.2.1.2.2v.3c-.4 1.9-1.6 3.7-2.5 5.5zM27 7.6c.1 0 .5 0 .7.3v.2l-.1.3c-1.1 1.6-2.5 3.5-2.9 5.6-.2.7-.4 1.5-.4 2.3 0 .7.2 1.4.5 2l.1.2c0 .1-.1.3-.5.4l-.5.1c-.4 0-.9-.2-1.1-.5-.3-.8-.4-1.5-.4-2.3 0-.8.1-1.2.1-1.3 0-.1 0-.1-.1-.1s-.3.2-.6.5l-1.4 1.3c-1.3 1.3-2.1 1.7-3 2-.2.1-.3.1-.4.1-.3 0-.6-.2-1.8-1.2-.1-.1-.6-.6-.6-1.5s.3-2 1.5-3.9c1.5-2.3 2.9-3.4 3.7-3.9 1.2-1.2 2.6-1.9 4.1-2.3.2-.1.4-.1.6-.1.6 0 1.1.3 1.5.8l.4.5c.1.2.3.5.6.5zm-3.1.1c-2.4 1.3-4.3 2.8-5.7 4.6-1.1 1.3-1.9 2.9-1.9 3.7 0 .3.1.7.6.7.2 0 .8-.3 1.2-.7 2.4-2.3 5-4 6.3-6.5l.7-1c.1-.1.1-.2.1-.4s-.2-.5-.6-.5c.1-.2-.3-.1-.7.1zM31.9 7.5c-.4.8-.5.6-.7 1-.9 2-1.1 3.3-1.8 5.4-.1.3-.2.6-.2.8-.1.3-.1.6-.1.8 0 .2.1.4.1.4.2 0 .4-.1.6-.2.5-.2 1.1-.6 2-1.7.2-.2.5-.5.9-1.1.8-1 2-1.8 3.2-5.2.1-.2.4-.8.7-.8.3 0 .4.2.8.2.8 0 .9.6.9.9 0 .5-.3.9-.6 1.3l-.5.8c-.6 1-1.1 2.2-1.5 3.4l-1.4 3.9c-.2.7-.3.9-.3 1.1 0 .1.1.1.1.1h.2c.2 0 .5.1.5.3 0 .4-.1.6-.2.7-1.7 2.4-2.6 4.9-3.1 7.4-.2 1-.2 2.6-1.6 2.8-.2 0-.4.1-.7.1-.4 0-1-.1-1-1 0-.5.2-1.2.5-2.1.6-1.4 1.3-3 2.2-4.5.1-.5.8-3.1 1.5-5.3.4-1.4.5-1.6.5-1.7 0-.1 0-.1-.1-.1s-.2.1-.4.3c-.9.9-2.5 2-2.8 2-1.1 0-1.9-.3-2.4-1.1-.1-.2-.2-.2-.2-.6 0-3.6 1.6-6.1 2.6-9.6.2-.5.7-.8.9-.8.1 0 .5.1.7.1.3 0 .7.2.7.6.2.8.2 1 0 1.4zM53.1 13.5c.4 0 .8.6.8.7l-.1.3c0 .2 0 .2-.2.3-.8.3-1.7 1.1-2.8 2-1.4 1.2-2.7 1.9-3.8 1.9-1.4 0-2.4-1-2.6-1.3-.2-.4-.3-.8-.3-1.2 0-.6.2-1.3.4-2 .1-.2.1-.7.3-1 1.3-2.7 3.1-5.9 5.3-7 .2-.2.3-.2.5-.2.9 0 2 .4 2.6 1.1.1.1.1.2.1.4 0 .3.1.3.1.4v.2c-.1.3-.9 1.5-.9 2.5 0 .2-.2.4-.5.4-.2 0-.4-.1-.5-.2l-.7-.5c-.2-.2-.3-.4-.3-.6 0-.5.6-1.2.6-1.6 0-.1-.1-.3-.2-.3-.2 0-.2.1-.4.3-1.1 1.1-2.2 2.7-3.1 4.2-.9 1.6-1.5 3.4-1.5 4 0 .3.2.6.4.6 1.2 0 2.4-.7 3.6-1.7 1.2-.8 2.4-1.7 3.2-1.7zM58.1 7.3c0 .2-.1.5-.5.8-.2.1-.5.4-.7 1.2-.6 2.3-1.6 4.9-1.9 6.8-.1.3-.1.5-.1.6s.2.4.4.4c.1 0 .4-.1.6-.3.9-.8.9-1.1 1.3-1.5 1.6-1.8 3-3.7 3.8-5.9.1-.3.2-.4.5-.6.2-.1.4-.2.6-.2.2 0 .4.2.6.3.4.1.5.3.5.5 0 .4-.1.5-.2.8-.9 1.9-1.5 3.9-1.9 5.9-.1.6-.2 1.2-.2 1.9s.5 1.2.5 1.8c0 .2-.1.4-.2.5-.1.1-.2.1-.4.1-.4 0-.7-.2-1-.4-.5-.3-.5-.1-.6-.5-.2-.5-.3-1.1-.3-1.6 0-.7.1-1.5.1-1.8 0-.1 0-.2-.1-.2s-.3.2-.4.3c-.9 1.1-1.8 2-2.8 2.5-.2.1-.2.1-.3.1s-.9-.1-1.5-.5c-.5-.3-.7-.6-.8-.8-.1-.4-.1-.9-.1-1.1 0-.9.3-2.1.6-3l.4-1.7c.5-1.6.8-3.2 1.8-4.9.3-.5.7-.7 1.1-.7.3 0 .7.1.9.4.1.3.3.5.3.8zM68 8.5c0 .3-.1.6-.2.9-.1.3-.1.4-.1.4 0 .1 0 .1.1.1 0 0 .1 0 .3-.2 1.4-1.1 2.6-1.8 3.5-2.2l.3-.1c.7 0 1.4.2 1.9.7.1.2.2.4.2.5 0 .8-.7 1.2-.9 1.2-.4 0-.8-.3-1.1-.3-.1 0-.2 0-.4.1-2.8 1.3-5.5 3.7-6.4 7.5-.2.8-.5 1.1-.6 1.3-.1.2-.4.2-.5.2-.4 0-.6-.3-.8-.6-.3-.3-.5-.7-.5-1 0-.9 1.1-1.8 1.4-2.8.6-2 1.3-4 1.8-6.1v-.2l-.2-.6c0-.2.4-.6 1-.6.4 0 .8.2.8.3.2.4.4.8.4 1.5zM76.1 17.6c-.5.5-1.5 1.3-2.6 1.3-.8 0-1.6-1.1-1.9-2.1-.1-.4-.1-.7-.1-1.1 0-.7.1-1.2.4-2.1.2-.5.3-.9.4-1.3.8-1.9 1.5-3.8 2.5-5.8.3-.6.8-.7 1.3-.7.3 0 .6.1.8.2 0 0 .1.1.1.3 0 1.4-1 2-1.6 3.3-.4 1-1.1 2.8-1.5 3.7-.4 1.2-.6 2.2-.6 2.6 0 .2 0 .8.5.8.6 0 .8-.2 1.9-.9.6-.4.8-.6 1.2-.6.2 0 .5.1.6.2.2.1.2.3.2.4 0 .3-.2.4-.4.7l-1.2 1.1zm3.6-16.4c0 .2 0 .3-.1.5-.5.6-1.1 1.3-1.7 1.3-.5 0-.9-.3-1-.5-.1-.3-.2-.6-.2-.9 0-.4.1-.8.3-1.1.3-.4.8-.5 1.3-.5.4 0 .9.1 1.1.3.2.3.3.6.3.9zM85.7 7.9c1 0 1.6-.1 2.2-.1.8 0 1.6.3 1.6.7 0 .3-.6.4-.7.6-.1.1-.1.1-.3.2-.5.1-1.2.3-1.9.4-.5.1-.8.1-1 .1-.2 0-.3 0-.3.2-.7 2.8-1.6 5.3-3.2 7-.7.8-1.4 1.5-2.3 1.5-.2 0-.5-.1-.6-.1-1-.5-1.7-1.1-1.9-1.7-.3-.7-.4-1.5-.4-2.2 0-2.2 1-4 2.2-5.9l.6-.8c.8-1.2 1.9-2.4 3-2.4.4 0 .9.1 1.3.5.2.2.3.2.4.4.3.8.6 1.6 1.3 1.6zm-2.8-.2c-.1-.3-.2-.4-.3-.4-.1 0-.3.1-.4.3l-.5.4c-.8 1-3.2 4.3-3.2 7.4 0 .1 0 .2.1.4s.4.7.6.9c.1.1.2.1.2.1.3 0 .4-.2.5-.2.2-.1.2-.2.4-.5 1.5-2.3 2.8-4.3 2.8-7v-.6c0-.2-.1-.2-.2-.3.1-.2.1-.3 0-.5zM91.3 7.3c0 .2-.1.5-.5.8-.2.1-.5.4-.7 1.2-.6 2.3-1.6 4.9-1.9 6.8-.1.3-.1.5-.1.6s.2.4.4.4c.1 0 .4-.1.6-.3.9-.8.9-1.1 1.3-1.5 1.6-1.8 3-3.7 3.8-5.9.1-.3.2-.4.5-.6.2-.1.4-.2.6-.2.2 0 .4.2.6.3.4.1.5.3.5.5 0 .4-.1.5-.2.8-.9 1.9-1.5 3.9-1.9 5.9-.1.6-.2 1.2-.2 1.9s.5 1.2.5 1.8c0 .2-.1.4-.2.5-.1.1-.2.1-.4.1-.4 0-.7-.2-1-.4-.5-.3-.5-.1-.6-.5-.2-.5-.3-1.1-.3-1.6 0-.7.1-1.5.1-1.8 0-.1 0-.2-.1-.2s-.3.2-.4.3c-.9 1.1-1.8 2-2.8 2.5-.2.1-.2.1-.3.1-.1 0-.9-.1-1.5-.5-.5-.3-.7-.6-.8-.8-.1-.4-.1-.9-.1-1.1 0-.9.3-2.1.6-3l.4-1.7c.5-1.6.8-3.2 1.8-4.9.3-.5.7-.7 1.1-.7.3 0 .7.1.9.4.1.3.3.5.3.8zM105 8c0 1-.4 1.7-.7 2.2-.2.3-.2.3-.4.3-.3 0-.7-.2-.9-.3-.2-.2-.4-.4-.4-.8 0-.1 0-.1.1-.2.2-.4.4-.8.4-1.2 0-.2-.1-.5-.2-.7-.1-.2-.4-.4-.6-.4-.2 0-1.3 1.5-1.5 2.7 0 .2-.1.4-.1.7 0 .2.1 1.3.2 1.7.2 2 .8 4.9.8 6 0 .2-.1.4-.2.5-.5.5-.9.9-1.6.9-.2 0-.5-.1-.6-.1-1.7-.7-2.9-2.1-3.7-3.5-.1-.1-.2-.3-.2-.4 0-.4.4-1 .9-1s.7.1 1 .4c.6.8.9 1.8 1.6 2.5.3.2.4.3.5.3.2 0 .3-.1.3-.2s0-.2-.1-.8c-.4-1.7-.8-5.7-.8-6.2 0-.7.3-2.2.9-3.2.7-1.2 1.8-1.7 2.3-1.7 1.4 0 2 .4 2.5.9.4.3.5 1.1.5 1.6z" />
</g>
</svg>